{
	"asset":{
		"generator":"Khronos glTF Blender I/O v4.5.47",
		"version":"2.0"
	},
	"extensionsUsed":[
		"KHR_materials_clearcoat",
		"KHR_materials_transmission",
		"KHR_materials_sheen",
		"KHR_texture_transform"
	],
	"extensionsRequired":[
		"KHR_texture_transform"
	],
	"scene":0,
	"scenes":[
		{
			"name":"Scene",
			"nodes":[
				0,
				1,
				2
			]
		}
	],
	"nodes":[
		{
			"mesh":0,
			"name":"ToyCar",
			"rotation":[
				0.70710688829422,
				0,
				0,
				0.7071066498756409
			],
			"scale":[
				0.0023342969361692667,
				0.002334296703338623,
				0.002334296703338623
			]
		},
		{
			"mesh":1,
			"name":"Fabric",
			"rotation":[
				0.70710688829422,
				0,
				0,
				0.7071066498756409
			],
			"scale":[
				0.0023342969361692667,
				0.002334296703338623,
				0.002334296703338623
			]
		},
		{
			"mesh":2,
			"name":"Glass",
			"rotation":[
				0.70710688829422,
				0,
				0,
				0.7071066498756409
			],
			"scale":[
				0.0023342969361692667,
				0.002334296703338623,
				0.002334296703338623
			]
		}
	],
	"materials":[
		{
			"doubleSided":true,
			"emissiveFactor":[
				1,
				1,
				1
			],
			"emissiveTexture":{
				"index":0
			},
			"extensions":{
				"KHR_materials_clearcoat":{
					"clearcoatFactor":1,
					"clearcoatTexture":{
						"index":1
					}
				}
			},
			"name":"ToyCar",
			"normalTexture":{
				"index":2
			},
			"occlusionTexture":{
				"index":3
			},
			"pbrMetallicRoughness":{
				"baseColorTexture":{
					"index":4
				},
				"metallicRoughnessTexture":{
					"index":3
				}
			}
		},
		{
			"doubleSided":true,
			"extensions":{
				"KHR_materials_sheen":{
					"sheenColorFactor":[
						1.0,
						0.0,
						0.0
					],
					"sheenRoughnessFactor":0.5
				}
			},
			"name":"Fabric",
			"normalTexture":{
				"extensions":{
					"KHR_texture_transform":{
						"scale":[
							3,
							3
						]
					}
				},
				"index":5
			},
			"occlusionTexture":{
				"index":6
			},
			"pbrMetallicRoughness":{
				"baseColorFactor":[
					0.15000000596046448,
					0.15000000596046448,
					0.15000000596046448,
					1
				],
				"baseColorTexture":{
					"extensions":{
						"KHR_texture_transform":{
							"scale":[
								3,
								3
							]
						}
					},
					"index":7
				},
				"metallicFactor":0
			}
		},
		{
			"extensions":{
				"KHR_materials_transmission":{
					"transmissionFactor":1
				}
			},
			"name":"Glass",
			"pbrMetallicRoughness":{
				"baseColorFactor":[
					0.30000001192092896,
					0.800000011920929,
					0.30000001192092896,
					1
				],
				"metallicFactor":0,
				"roughnessFactor":0
			}
		}
	],
	"meshes":[
		{
			"name":"ToyCar",
			"primitives":[
				{
					"attributes":{
						"POSITION":0,
						"NORMAL":1,
						"TEXCOORD_0":2
					},
					"indices":3,
					"material":0
				}
			]
		},
		{
			"name":"Fabric",
			"primitives":[
				{
					"attributes":{
						"POSITION":4,
						"NORMAL":5,
						"TEXCOORD_0":6
					},
					"indices":7,
					"material":1
				}
			]
		},
		{
			"name":"Glass",
			"primitives":[
				{
					"attributes":{
						"POSITION":8,
						"NORMAL":9,
						"TEXCOORD_0":10
					},
					"indices":11,
					"material":2
				}
			]
		}
	],
	"textures":[
		{
			"sampler":0,
			"source":0
		},
		{
			"sampler":0,
			"source":1
		},
		{
			"sampler":0,
			"source":2
		},
		{
			"sampler":0,
			"source":3
		},
		{
			"sampler":0,
			"source":4
		},
		{
			"sampler":0,
			"source":5
		},
		{
			"sampler":0,
			"source":6
		},
		{
			"sampler":0,
			"source":7
		}
	],
	"images":[
		{
			"mimeType":"image/png",
			"name":"ToyCar_emissive",
			"uri":"ToyCar_emissive.png"
		},
		{
			"mimeType":"image/png",
			"name":"ToyCar_clearcoat",
			"uri":"ToyCar_clearcoat.png"
		},
		{
			"mimeType":"image/png",
			"name":"ToyCar_normal",
			"uri":"ToyCar_normal.png"
		},
		{
			"mimeType":"image/png",
			"name":"ToyCar_occlusion_roughness_metallic",
			"uri":"ToyCar_occlusion_roughness_metallic.png"
		},
		{
			"mimeType":"image/png",
			"name":"ToyCar_basecolor",
			"uri":"ToyCar_basecolor.png"
		},
		{
			"mimeType":"image/png",
			"name":"Fabric_normal",
			"uri":"Fabric_normal.png"
		},
		{
			"mimeType":"image/png",
			"name":"Fabric_occlusion",
			"uri":"Fabric_occlusion.png"
		},
		{
			"mimeType":"image/png",
			"name":"Fabric_baseColor",
			"uri":"Fabric_baseColor.png"
		}
	],
	"accessors":[
		{
			"bufferView":0,
			"componentType":5126,
			"count":67369,
			"max":[
				93.53763580322266,
				189.7447509765625,
				-9.924240112304688
			],
			"min":[
				-93.53764343261719,
				-194.0495147705078,
				-126.16624450683594
			],
			"type":"VEC3"
		},
		{
			"bufferView":1,
			"componentType":5126,
			"count":67369,
			"type":"VEC3"
		},
		{
			"bufferView":2,
			"componentType":5126,
			"count":67369,
			"type":"VEC2"
		},
		{
			"bufferView":3,
			"componentType":5125,
			"count":266511,
			"type":"SCALAR"
		},
		{
			"bufferView":4,
			"componentType":5126,
			"count":8960,
			"max":[
				384.478271484375,
				369.81146240234375,
				162.06275939941406
			],
			"min":[
				-349.9508972167969,
				-369.8115234375,
				-10.12609577178955
			],
			"type":"VEC3"
		},
		{
			"bufferView":5,
			"componentType":5126,
			"count":8960,
			"type":"VEC3"
		},
		{
			"bufferView":6,
			"componentType":5126,
			"count":8960,
			"type":"VEC2"
		},
		{
			"bufferView":7,
			"componentType":5123,
			"count":52815,
			"type":"SCALAR"
		},
		{
			"bufferView":8,
			"componentType":5126,
			"count":1522,
			"max":[
				57.411041259765625,
				91.12582397460938,
				-89.59808349609375
			],
			"min":[
				-57.411048889160156,
				-93.18028259277344,
				-120.69184875488281
			],
			"type":"VEC3"
		},
		{
			"bufferView":9,
			"componentType":5126,
			"count":1522,
			"type":"VEC3"
		},
		{
			"bufferView":10,
			"componentType":5126,
			"count":1522,
			"type":"VEC2"
		},
		{
			"bufferView":11,
			"componentType":5123,
			"count":7482,
			"type":"SCALAR"
		}
	],
	"bufferViews":[
		{
			"buffer":0,
			"byteLength":808428,
			"byteOffset":0,
			"target":34962
		},
		{
			"buffer":0,
			"byteLength":808428,
			"byteOffset":808428,
			"target":34962
		},
		{
			"buffer":0,
			"byteLength":538952,
			"byteOffset":1616856,
			"target":34962
		},
		{
			"buffer":0,
			"byteLength":1066044,
			"byteOffset":2155808,
			"target":34963
		},
		{
			"buffer":0,
			"byteLength":107520,
			"byteOffset":3221852,
			"target":34962
		},
		{
			"buffer":0,
			"byteLength":107520,
			"byteOffset":3329372,
			"target":34962
		},
		{
			"buffer":0,
			"byteLength":71680,
			"byteOffset":3436892,
			"target":34962
		},
		{
			"buffer":0,
			"byteLength":105630,
			"byteOffset":3508572,
			"target":34963
		},
		{
			"buffer":0,
			"byteLength":18264,
			"byteOffset":3614204,
			"target":34962
		},
		{
			"buffer":0,
			"byteLength":18264,
			"byteOffset":3632468,
			"target":34962
		},
		{
			"buffer":0,
			"byteLength":12176,
			"byteOffset":3650732,
			"target":34962
		},
		{
			"buffer":0,
			"byteLength":14964,
			"byteOffset":3662908,
			"target":34963
		}
	],
	"samplers":[
		{
			"magFilter":9729,
			"minFilter":9987
		}
	],
	"buffers":[
		{
			"byteLength":3677872,
			"uri":"ToyCar.bin"
		}
	]
}
